<?xml version="1.0" encoding="UTF-8"?>
<svg xmlns="http://www.w3.org/2000/svg" xmlns:xlink="http://www.w3.org/1999/xlink" width="40pt" height="40pt" viewBox="0 0 40 40" version="1.1">
<g id="surface1">
<path style=" stroke:none;fill-rule:nonzero;fill:rgb(100%,47.058824%,8.627451%);fill-opacity:1;" d="M 2.34375 0 L 4.828125 35.007812 L 20.015625 40 L 35.203125 35.007812 L 37.6875 0 Z M 2.34375 0 "/>
<path style=" stroke:none;fill-rule:nonzero;fill:rgb(100%,29.411765%,0%);fill-opacity:1;" d="M 37.6875 0 L 35.203125 35.007812 L 20.015625 40 L 20.015625 0 Z M 37.6875 0 "/>
<path style=" stroke:none;fill-rule:nonzero;fill:rgb(92.54902%,92.54902%,94.509804%);fill-opacity:1;" d="M 31.054688 10.625 L 13.6875 10.625 L 14.109375 16.484375 L 30.632812 16.484375 L 29.625 30.671875 L 20.015625 33.882812 L 10.40625 30.671875 L 10.078125 25.9375 L 14.765625 25.9375 L 14.859375 27.226562 L 20.015625 28.9375 L 25.171875 27.226562 L 25.59375 21.171875 L 9.726562 21.171875 L 8.648438 5.9375 L 31.382812 5.9375 Z M 31.054688 10.625 "/>
<path style=" stroke:none;fill-rule:nonzero;fill:rgb(88.627451%,88.627451%,90.588235%);fill-opacity:1;" d="M 30.632812 16.484375 L 29.625 30.671875 L 20.015625 33.882812 L 20.015625 28.9375 L 25.171875 27.226562 L 25.59375 21.171875 L 20.015625 21.171875 L 20.015625 16.484375 Z M 30.632812 16.484375 "/>
<path style=" stroke:none;fill-rule:nonzero;fill:rgb(88.627451%,88.627451%,90.588235%);fill-opacity:1;" d="M 31.382812 5.9375 L 31.054688 10.625 L 20.015625 10.625 L 20.015625 5.9375 Z M 31.382812 5.9375 "/>
</g>
</svg>
