<?xml version="1.0" encoding="UTF-8"?>
<svg xmlns="http://www.w3.org/2000/svg" xmlns:xlink="http://www.w3.org/1999/xlink" width="30pt" height="30pt" viewBox="0 0 30 30" version="1.1">
<g id="surface1">
<path style=" stroke:none;fill-rule:nonzero;fill:rgb(100%,47.058824%,8.627451%);fill-opacity:1;" d="M 1.757812 0 L 3.621094 26.257812 L 15.011719 30 L 26.402344 26.257812 L 28.265625 0 Z M 1.757812 0 "/>
<path style=" stroke:none;fill-rule:nonzero;fill:rgb(100%,29.411765%,0%);fill-opacity:1;" d="M 28.265625 0 L 26.402344 26.257812 L 15.011719 30 L 15.011719 0 Z M 28.265625 0 "/>
<path style=" stroke:none;fill-rule:nonzero;fill:rgb(92.54902%,92.54902%,94.509804%);fill-opacity:1;" d="M 23.289062 7.96875 L 10.265625 7.96875 L 10.582031 12.363281 L 22.976562 12.363281 L 22.21875 23.003906 L 15.011719 25.410156 L 7.804688 23.003906 L 7.558594 19.453125 L 11.074219 19.453125 L 11.144531 20.421875 L 15.011719 21.703125 L 18.878906 20.421875 L 19.195312 15.878906 L 7.296875 15.878906 L 6.484375 4.453125 L 23.535156 4.453125 Z M 23.289062 7.96875 "/>
<path style=" stroke:none;fill-rule:nonzero;fill:rgb(88.627451%,88.627451%,90.588235%);fill-opacity:1;" d="M 22.976562 12.363281 L 22.21875 23.003906 L 15.011719 25.410156 L 15.011719 21.703125 L 18.878906 20.421875 L 19.195312 15.878906 L 15.011719 15.878906 L 15.011719 12.363281 Z M 22.976562 12.363281 "/>
<path style=" stroke:none;fill-rule:nonzero;fill:rgb(88.627451%,88.627451%,90.588235%);fill-opacity:1;" d="M 23.535156 4.453125 L 23.289062 7.96875 L 15.011719 7.96875 L 15.011719 4.453125 Z M 23.535156 4.453125 "/>
</g>
</svg>
