<?xml version="1.0" encoding="UTF-8"?>
<svg xmlns="http://www.w3.org/2000/svg" xmlns:xlink="http://www.w3.org/1999/xlink" width="40pt" height="46pt" viewBox="0 0 40 46" version="1.1">
<g id="surface1">
<path style=" stroke:none;fill-rule:nonzero;fill:rgb(30.588235%,30.588235%,30.588235%);fill-opacity:1;" d="M 1.652344 23.984375 L 1.652344 18.960938 L 2.769531 18.960938 L 2.769531 24.367188 C 2.820312 24.800781 2.78125 25.242188 2.65625 25.664062 C 2.53125 26.085938 2.320312 26.476562 2.035156 26.816406 C 1.507812 27.261719 0.835938 27.503906 0.140625 27.492188 L 0.0234375 26.675781 C 0.472656 26.679688 0.902344 26.515625 1.238281 26.21875 C 1.539062 25.878906 1.652344 25.410156 1.652344 23.984375 Z M 9.96875 23.339844 C 9.96875 23.949219 9.96875 24.5 10.019531 24.972656 L 9.027344 24.972656 L 8.960938 24 C 8.753906 24.34375 8.460938 24.628906 8.105469 24.824219 C 7.75 25.019531 7.347656 25.117188 6.941406 25.109375 C 5.976562 25.109375 4.828125 24.597656 4.828125 22.496094 L 4.828125 19.011719 L 5.941406 19.011719 L 5.941406 22.277344 C 5.941406 23.414062 6.300781 24.171875 7.304688 24.171875 C 7.515625 24.171875 7.71875 24.136719 7.910156 24.058594 C 8.101562 23.980469 8.277344 23.867188 8.421875 23.722656 C 8.570312 23.582031 8.6875 23.410156 8.765625 23.222656 C 8.84375 23.035156 8.882812 22.832031 8.878906 22.628906 L 8.878906 18.96875 L 9.996094 18.96875 L 9.996094 23.304688 Z M 12.082031 20.953125 C 12.082031 20.195312 12.082031 19.574219 12.03125 19.011719 L 13.03125 19.011719 L 13.082031 20.03125 C 13.304688 19.660156 13.625 19.359375 14.007812 19.15625 C 14.390625 18.949219 14.824219 18.851562 15.261719 18.871094 C 16.742188 18.871094 17.859375 20.089844 17.859375 21.902344 C 17.859375 24.039062 16.519531 25.101562 15.070312 25.101562 C 14.699219 25.117188 14.332031 25.039062 14 24.875 C 13.667969 24.710938 13.386719 24.464844 13.179688 24.164062 L 13.179688 27.429688 L 12.082031 27.429688 Z M 13.179688 22.546875 C 13.183594 22.695312 13.199219 22.839844 13.230469 22.988281 C 13.324219 23.347656 13.539062 23.671875 13.84375 23.898438 C 14.144531 24.128906 14.515625 24.253906 14.894531 24.253906 C 16.070312 24.253906 16.757812 23.3125 16.757812 21.949219 C 16.757812 20.757812 16.109375 19.738281 14.9375 19.738281 C 14.472656 19.773438 14.039062 19.976562 13.714844 20.304688 C 13.390625 20.636719 13.203125 21.070312 13.179688 21.523438 Z M 19.84375 19.003906 L 21.183594 22.523438 C 21.324219 22.917969 21.476562 23.390625 21.574219 23.742188 C 21.691406 23.382812 21.816406 22.925781 21.964844 22.5 L 23.179688 19.003906 L 24.355469 19.003906 L 22.691406 23.25 C 21.859375 25.292969 21.351562 26.347656 20.585938 26.984375 C 20.199219 27.328125 19.730469 27.570312 19.21875 27.683594 L 18.945312 26.769531 C 19.300781 26.65625 19.632812 26.476562 19.917969 26.238281 C 20.324219 25.914062 20.648438 25.5 20.859375 25.03125 C 20.90625 24.949219 20.9375 24.859375 20.949219 24.769531 C 20.941406 24.671875 20.917969 24.574219 20.875 24.484375 L 18.613281 18.988281 L 19.828125 18.988281 Z M 27.316406 17.292969 L 27.316406 19.007812 L 28.914062 19.007812 L 28.914062 19.824219 L 27.316406 19.824219 L 27.316406 23.039062 C 27.316406 23.773438 27.53125 24.199219 28.148438 24.199219 C 28.367188 24.203125 28.582031 24.179688 28.796875 24.125 L 28.847656 24.941406 C 28.527344 25.050781 28.191406 25.101562 27.855469 25.089844 C 27.632812 25.105469 27.410156 25.070312 27.203125 24.992188 C 26.992188 24.910156 26.804688 24.789062 26.648438 24.632812 C 26.308594 24.1875 26.15625 23.632812 26.214844 23.082031 L 26.214844 19.816406 L 25.269531 19.816406 L 25.269531 19 L 26.234375 19 L 26.234375 17.542969 Z M 30.964844 22.179688 C 30.945312 22.457031 30.984375 22.734375 31.082031 22.996094 C 31.179688 23.257812 31.332031 23.492188 31.53125 23.6875 C 31.734375 23.886719 31.972656 24.039062 32.238281 24.132812 C 32.503906 24.230469 32.789062 24.265625 33.070312 24.246094 C 33.640625 24.257812 34.210938 24.152344 34.734375 23.933594 L 34.925781 24.75 C 34.28125 25.011719 33.585938 25.136719 32.886719 25.117188 C 32.480469 25.144531 32.074219 25.085938 31.691406 24.945312 C 31.308594 24.804688 30.964844 24.582031 30.679688 24.296875 C 30.390625 24.011719 30.171875 23.667969 30.035156 23.292969 C 29.894531 22.914062 29.839844 22.511719 29.875 22.113281 C 29.875 20.316406 30.964844 18.898438 32.746094 18.898438 C 34.742188 18.898438 35.242188 20.613281 35.242188 21.707031 C 35.253906 21.875 35.253906 22.042969 35.242188 22.210938 L 30.941406 22.210938 Z M 34.226562 21.363281 C 34.261719 21.144531 34.246094 20.921875 34.179688 20.710938 C 34.117188 20.5 34.011719 20.300781 33.863281 20.136719 C 33.714844 19.96875 33.535156 19.832031 33.332031 19.742188 C 33.128906 19.648438 32.90625 19.601562 32.679688 19.597656 C 32.222656 19.632812 31.796875 19.832031 31.480469 20.15625 C 31.164062 20.484375 30.984375 20.914062 30.976562 21.363281 Z M 36.933594 20.863281 C 36.933594 20.160156 36.933594 19.554688 36.886719 19 L 37.882812 19 L 37.882812 20.167969 L 37.933594 20.167969 C 38.039062 19.808594 38.253906 19.488281 38.554688 19.253906 C 38.851562 19.019531 39.214844 18.882812 39.597656 18.859375 C 39.703125 18.847656 39.808594 18.847656 39.914062 18.859375 L 39.914062 19.882812 C 39.785156 19.867188 39.660156 19.867188 39.53125 19.882812 C 39.152344 19.894531 38.792969 20.042969 38.519531 20.300781 C 38.246094 20.554688 38.074219 20.898438 38.042969 21.269531 C 38.011719 21.4375 37.992188 21.605469 37.992188 21.777344 L 37.992188 24.953125 L 36.894531 24.953125 L 36.894531 20.871094 Z M 36.933594 20.863281 "/>
<path style=" stroke:none;fill-rule:nonzero;fill:rgb(46.27451%,46.27451%,46.666667%);fill-opacity:1;" d="M 36.445312 2.601562 C 36.480469 3.148438 36.347656 3.695312 36.066406 4.167969 C 35.78125 4.644531 35.359375 5.023438 34.855469 5.261719 C 34.351562 5.503906 33.785156 5.589844 33.230469 5.511719 C 32.675781 5.433594 32.160156 5.195312 31.742188 4.828125 C 31.328125 4.457031 31.03125 3.976562 30.894531 3.445312 C 30.757812 2.910156 30.785156 2.351562 30.976562 1.832031 C 31.164062 1.316406 31.507812 0.867188 31.957031 0.539062 C 32.410156 0.214844 32.949219 0.0273438 33.507812 0.00390625 C 33.875 -0.015625 34.242188 0.0351562 34.589844 0.15625 C 34.9375 0.277344 35.253906 0.460938 35.527344 0.703125 C 35.800781 0.945312 36.023438 1.234375 36.179688 1.5625 C 36.339844 1.886719 36.429688 2.242188 36.445312 2.601562 Z M 36.445312 2.601562 "/>
<path style=" stroke:none;fill-rule:nonzero;fill:rgb(95.294118%,46.666667%,14.901961%);fill-opacity:1;" d="M 19.992188 34.582031 C 12.503906 34.582031 5.921875 31.945312 2.519531 28.050781 C 3.839844 31.554688 6.222656 34.578125 9.34375 36.710938 C 12.46875 38.847656 16.1875 39.992188 19.992188 39.992188 C 23.800781 39.992188 27.515625 38.847656 30.640625 36.710938 C 33.765625 34.578125 36.148438 31.554688 37.46875 28.050781 C 34.070312 31.945312 27.515625 34.582031 19.992188 34.582031 Z M 19.992188 34.582031 "/>
<path style=" stroke:none;fill-rule:nonzero;fill:rgb(95.294118%,46.666667%,14.901961%);fill-opacity:1;" d="M 19.992188 9.253906 C 27.480469 9.253906 34.0625 11.890625 37.46875 15.785156 C 36.148438 12.28125 33.765625 9.261719 30.640625 7.125 C 27.515625 4.988281 23.800781 3.84375 19.992188 3.84375 C 16.1875 3.84375 12.46875 4.988281 9.34375 7.125 C 6.222656 9.261719 3.839844 12.28125 2.519531 15.785156 C 5.921875 11.882812 12.46875 9.253906 19.992188 9.253906 Z M 19.992188 9.253906 "/>
<path style=" stroke:none;fill-rule:nonzero;fill:rgb(61.960784%,61.960784%,61.960784%);fill-opacity:1;" d="M 9.683594 42.164062 C 9.726562 42.855469 9.558594 43.542969 9.203125 44.140625 C 8.847656 44.738281 8.320312 45.21875 7.683594 45.519531 C 7.046875 45.820312 6.335938 45.929688 5.636719 45.832031 C 4.941406 45.734375 4.285156 45.4375 3.761719 44.972656 C 3.238281 44.511719 2.863281 43.90625 2.691406 43.234375 C 2.519531 42.5625 2.554688 41.855469 2.792969 41.203125 C 3.03125 40.550781 3.460938 39.984375 4.027344 39.574219 C 4.597656 39.164062 5.273438 38.925781 5.980469 38.898438 C 6.441406 38.871094 6.902344 38.9375 7.339844 39.089844 C 7.777344 39.238281 8.175781 39.472656 8.519531 39.777344 C 8.863281 40.082031 9.144531 40.445312 9.34375 40.855469 C 9.542969 41.265625 9.660156 41.710938 9.683594 42.164062 Z M 9.683594 42.164062 "/>
<path style=" stroke:none;fill-rule:nonzero;fill:rgb(38.039216%,38.431373%,38.431373%);fill-opacity:1;" d="M 3.371094 8.367188 C 2.964844 8.378906 2.566406 8.269531 2.226562 8.0625 C 1.882812 7.851562 1.613281 7.546875 1.445312 7.183594 C 1.28125 6.824219 1.226562 6.421875 1.292969 6.03125 C 1.359375 5.640625 1.542969 5.277344 1.816406 4.988281 C 2.09375 4.699219 2.449219 4.496094 2.839844 4.402344 C 3.234375 4.3125 3.644531 4.335938 4.023438 4.476562 C 4.402344 4.613281 4.730469 4.855469 4.96875 5.175781 C 5.207031 5.5 5.339844 5.878906 5.359375 6.277344 C 5.375 6.8125 5.175781 7.332031 4.800781 7.722656 C 4.429688 8.113281 3.914062 8.34375 3.371094 8.367188 Z M 3.371094 8.367188 "/>
</g>
</svg>
