<?xml version="1.0" encoding="UTF-8"?>
<svg xmlns="http://www.w3.org/2000/svg" xmlns:xlink="http://www.w3.org/1999/xlink" width="25pt" height="28pt" viewBox="0 0 25 28" version="1.1">
<g id="surface1">
<path style=" stroke:none;fill-rule:nonzero;fill:rgb(30.588235%,30.588235%,30.588235%);fill-opacity:1;" d="M 1.03125 14.726562 L 1.03125 11.644531 L 1.730469 11.644531 L 1.730469 14.960938 C 1.761719 15.230469 1.738281 15.5 1.660156 15.757812 C 1.582031 16.019531 1.449219 16.257812 1.273438 16.464844 C 0.941406 16.738281 0.523438 16.886719 0.0898438 16.882812 L 0.015625 16.378906 C 0.296875 16.382812 0.5625 16.28125 0.773438 16.097656 C 0.960938 15.890625 1.03125 15.601562 1.03125 14.726562 Z M 6.230469 14.332031 C 6.230469 14.707031 6.230469 15.042969 6.261719 15.335938 L 5.640625 15.335938 L 5.601562 14.738281 C 5.472656 14.949219 5.289062 15.121094 5.066406 15.242188 C 4.84375 15.363281 4.59375 15.421875 4.339844 15.417969 C 3.734375 15.417969 3.019531 15.105469 3.019531 13.8125 L 3.019531 11.675781 L 3.714844 11.675781 L 3.714844 13.679688 C 3.714844 14.378906 3.9375 14.84375 4.566406 14.84375 C 4.699219 14.84375 4.824219 14.820312 4.945312 14.773438 C 5.0625 14.726562 5.171875 14.65625 5.265625 14.566406 C 5.355469 14.480469 5.429688 14.375 5.480469 14.257812 C 5.527344 14.144531 5.550781 14.019531 5.550781 13.894531 L 5.550781 11.648438 L 6.246094 11.648438 L 6.246094 14.308594 Z M 7.550781 12.867188 C 7.550781 12.402344 7.550781 12.019531 7.519531 11.675781 L 8.144531 11.675781 L 8.175781 12.300781 C 8.316406 12.070312 8.515625 11.886719 8.753906 11.761719 C 8.992188 11.636719 9.265625 11.574219 9.539062 11.585938 C 10.464844 11.585938 11.164062 12.335938 11.164062 13.449219 C 11.164062 14.761719 10.324219 15.414062 9.417969 15.414062 C 9.1875 15.421875 8.957031 15.375 8.75 15.273438 C 8.542969 15.171875 8.367188 15.023438 8.238281 14.835938 L 8.238281 16.84375 L 7.550781 16.84375 Z M 8.238281 13.84375 C 8.238281 13.9375 8.25 14.023438 8.269531 14.117188 C 8.328125 14.335938 8.460938 14.535156 8.652344 14.675781 C 8.839844 14.816406 9.070312 14.894531 9.308594 14.894531 C 10.042969 14.894531 10.472656 14.316406 10.472656 13.476562 C 10.472656 12.746094 10.070312 12.121094 9.335938 12.121094 C 9.046875 12.140625 8.773438 12.265625 8.570312 12.46875 C 8.367188 12.671875 8.25 12.9375 8.238281 13.214844 Z M 12.402344 11.667969 L 13.238281 13.832031 C 13.328125 14.074219 13.421875 14.363281 13.484375 14.578125 C 13.558594 14.359375 13.636719 14.078125 13.726562 13.816406 L 14.488281 11.667969 L 15.222656 11.667969 L 14.183594 14.277344 C 13.664062 15.53125 13.34375 16.179688 12.867188 16.570312 C 12.625 16.78125 12.332031 16.929688 12.011719 17 L 11.839844 16.4375 C 12.0625 16.367188 12.269531 16.257812 12.449219 16.109375 C 12.703125 15.914062 12.90625 15.65625 13.039062 15.371094 C 13.066406 15.320312 13.085938 15.265625 13.09375 15.210938 C 13.089844 15.148438 13.074219 15.089844 13.046875 15.035156 L 11.632812 11.660156 L 12.390625 11.660156 Z M 17.074219 10.617188 L 17.074219 11.671875 L 18.070312 11.671875 L 18.070312 12.171875 L 17.074219 12.171875 L 17.074219 14.148438 C 17.074219 14.597656 17.207031 14.859375 17.59375 14.859375 C 17.730469 14.863281 17.863281 14.847656 18 14.8125 L 18.03125 15.316406 C 17.828125 15.382812 17.621094 15.414062 17.410156 15.40625 C 17.269531 15.414062 17.132812 15.394531 17 15.347656 C 16.871094 15.296875 16.753906 15.222656 16.65625 15.125 C 16.441406 14.851562 16.347656 14.511719 16.382812 14.171875 L 16.382812 12.167969 L 15.792969 12.167969 L 15.792969 11.667969 L 16.398438 11.667969 L 16.398438 10.773438 Z M 19.351562 13.617188 C 19.339844 13.789062 19.367188 13.960938 19.425781 14.121094 C 19.488281 14.28125 19.582031 14.425781 19.707031 14.546875 C 19.835938 14.667969 19.984375 14.761719 20.148438 14.820312 C 20.316406 14.878906 20.492188 14.898438 20.667969 14.886719 C 21.023438 14.894531 21.382812 14.832031 21.710938 14.695312 L 21.828125 15.199219 C 21.425781 15.359375 20.992188 15.433594 20.554688 15.421875 C 20.300781 15.441406 20.046875 15.402344 19.808594 15.316406 C 19.566406 15.230469 19.351562 15.09375 19.175781 14.917969 C 18.992188 14.742188 18.859375 14.53125 18.773438 14.300781 C 18.683594 14.070312 18.648438 13.824219 18.671875 13.578125 C 18.671875 12.476562 19.351562 11.605469 20.464844 11.605469 C 21.714844 11.605469 22.027344 12.65625 22.027344 13.328125 C 22.035156 13.433594 22.035156 13.535156 22.027344 13.636719 L 19.339844 13.636719 Z M 21.390625 13.117188 C 21.414062 12.984375 21.402344 12.847656 21.363281 12.71875 C 21.324219 12.585938 21.257812 12.464844 21.164062 12.363281 C 21.070312 12.261719 20.960938 12.175781 20.832031 12.121094 C 20.707031 12.066406 20.566406 12.035156 20.425781 12.035156 C 20.140625 12.054688 19.875 12.175781 19.675781 12.375 C 19.476562 12.578125 19.367188 12.84375 19.359375 13.117188 Z M 23.082031 12.8125 C 23.082031 12.378906 23.082031 12.007812 23.054688 11.667969 L 23.675781 11.667969 L 23.675781 12.382812 L 23.707031 12.382812 C 23.773438 12.164062 23.910156 11.964844 24.097656 11.824219 C 24.28125 11.679688 24.507812 11.59375 24.75 11.582031 C 24.8125 11.574219 24.878906 11.574219 24.945312 11.582031 L 24.945312 12.207031 C 24.867188 12.199219 24.789062 12.199219 24.707031 12.207031 C 24.46875 12.214844 24.246094 12.308594 24.074219 12.464844 C 23.902344 12.621094 23.796875 12.832031 23.777344 13.058594 C 23.757812 13.164062 23.746094 13.265625 23.746094 13.371094 L 23.746094 15.320312 L 23.058594 15.320312 L 23.058594 12.816406 Z M 23.082031 12.8125 "/>
<path style=" stroke:none;fill-rule:nonzero;fill:rgb(46.27451%,46.27451%,46.666667%);fill-opacity:1;" d="M 22.777344 1.597656 C 22.800781 1.933594 22.71875 2.269531 22.542969 2.558594 C 22.363281 2.851562 22.101562 3.085938 21.785156 3.230469 C 21.46875 3.378906 21.117188 3.433594 20.769531 3.382812 C 20.421875 3.335938 20.101562 3.191406 19.839844 2.964844 C 19.578125 2.738281 19.394531 2.441406 19.308594 2.117188 C 19.222656 1.785156 19.242188 1.445312 19.359375 1.125 C 19.476562 0.808594 19.691406 0.53125 19.972656 0.332031 C 20.257812 0.132812 20.59375 0.015625 20.941406 0.00390625 C 21.171875 -0.0078125 21.402344 0.0234375 21.617188 0.0976562 C 21.835938 0.171875 22.035156 0.28125 22.203125 0.433594 C 22.375 0.582031 22.515625 0.757812 22.613281 0.960938 C 22.710938 1.160156 22.769531 1.375 22.777344 1.597656 Z M 22.777344 1.597656 "/>
<path style=" stroke:none;fill-rule:nonzero;fill:rgb(95.294118%,46.666667%,14.901961%);fill-opacity:1;" d="M 12.496094 21.234375 C 7.816406 21.234375 3.703125 19.617188 1.574219 17.222656 C 2.398438 19.375 3.890625 21.230469 5.839844 22.542969 C 7.792969 23.855469 10.117188 24.554688 12.496094 24.554688 C 14.875 24.554688 17.195312 23.855469 19.148438 22.542969 C 21.101562 21.230469 22.59375 19.375 23.417969 17.222656 C 21.292969 19.617188 17.195312 21.234375 12.496094 21.234375 Z M 12.496094 21.234375 "/>
<path style=" stroke:none;fill-rule:nonzero;fill:rgb(95.294118%,46.666667%,14.901961%);fill-opacity:1;" d="M 12.496094 5.683594 C 17.175781 5.683594 21.289062 7.300781 23.417969 9.691406 C 22.59375 7.542969 21.101562 5.6875 19.148438 4.375 C 17.195312 3.0625 14.875 2.359375 12.496094 2.359375 C 10.117188 2.359375 7.792969 3.0625 5.839844 4.375 C 3.890625 5.6875 2.398438 7.542969 1.574219 9.691406 C 3.703125 7.296875 7.792969 5.683594 12.496094 5.683594 Z M 12.496094 5.683594 "/>
<path style=" stroke:none;fill-rule:nonzero;fill:rgb(61.960784%,61.960784%,61.960784%);fill-opacity:1;" d="M 6.050781 25.890625 C 6.078125 26.316406 5.972656 26.738281 5.75 27.105469 C 5.53125 27.472656 5.199219 27.765625 4.800781 27.949219 C 4.40625 28.136719 3.960938 28.203125 3.523438 28.140625 C 3.089844 28.082031 2.679688 27.898438 2.351562 27.613281 C 2.023438 27.332031 1.789062 26.960938 1.683594 26.546875 C 1.574219 26.136719 1.597656 25.699219 1.746094 25.300781 C 1.894531 24.898438 2.164062 24.550781 2.515625 24.300781 C 2.875 24.046875 3.296875 23.902344 3.738281 23.886719 C 4.027344 23.867188 4.3125 23.910156 4.585938 24.003906 C 4.859375 24.09375 5.109375 24.238281 5.324219 24.425781 C 5.539062 24.613281 5.714844 24.835938 5.839844 25.085938 C 5.964844 25.339844 6.039062 25.613281 6.050781 25.890625 Z M 6.050781 25.890625 "/>
<path style=" stroke:none;fill-rule:nonzero;fill:rgb(38.039216%,38.431373%,38.431373%);fill-opacity:1;" d="M 2.105469 5.136719 C 1.851562 5.144531 1.605469 5.078125 1.390625 4.949219 C 1.175781 4.820312 1.007812 4.632812 0.902344 4.410156 C 0.800781 4.191406 0.765625 3.941406 0.808594 3.703125 C 0.851562 3.464844 0.964844 3.242188 1.136719 3.0625 C 1.308594 2.886719 1.53125 2.761719 1.773438 2.703125 C 2.023438 2.648438 2.277344 2.664062 2.515625 2.75 C 2.75 2.832031 2.957031 2.980469 3.105469 3.179688 C 3.253906 3.378906 3.335938 3.609375 3.351562 3.855469 C 3.359375 4.183594 3.234375 4.503906 3 4.742188 C 2.769531 4.980469 2.445312 5.125 2.105469 5.136719 Z M 2.105469 5.136719 "/>
</g>
</svg>
