<?xml version="1.0" encoding="UTF-8"?>
<svg xmlns="http://www.w3.org/2000/svg" xmlns:xlink="http://www.w3.org/1999/xlink" width="30pt" height="35pt" viewBox="0 0 30 35" version="1.1">
<g id="surface1">
<path style=" stroke:none;fill-rule:nonzero;fill:rgb(30.588235%,30.588235%,30.588235%);fill-opacity:1;" d="M 1.242188 18.246094 L 1.242188 14.425781 L 2.078125 14.425781 L 2.078125 18.539062 C 2.117188 18.871094 2.085938 19.207031 1.992188 19.527344 C 1.898438 19.847656 1.738281 20.144531 1.527344 20.402344 C 1.132812 20.742188 0.625 20.925781 0.105469 20.917969 L 0.015625 20.296875 C 0.355469 20.296875 0.679688 20.175781 0.929688 19.949219 C 1.152344 19.6875 1.242188 19.335938 1.242188 18.246094 Z M 7.476562 17.757812 C 7.476562 18.222656 7.476562 18.640625 7.515625 19 L 6.773438 19 L 6.722656 18.261719 C 6.566406 18.523438 6.34375 18.738281 6.078125 18.886719 C 5.8125 19.035156 5.511719 19.109375 5.207031 19.105469 C 4.480469 19.105469 3.621094 18.714844 3.621094 17.117188 L 3.621094 14.464844 L 4.457031 14.464844 L 4.457031 16.949219 C 4.457031 17.8125 4.726562 18.390625 5.480469 18.390625 C 5.636719 18.394531 5.789062 18.363281 5.933594 18.304688 C 6.078125 18.246094 6.207031 18.160156 6.316406 18.050781 C 6.425781 17.941406 6.515625 17.8125 6.574219 17.667969 C 6.632812 17.523438 6.660156 17.371094 6.660156 17.21875 L 6.660156 14.433594 L 7.496094 14.433594 L 7.496094 17.734375 Z M 9.0625 15.941406 C 9.0625 15.363281 9.0625 14.894531 9.023438 14.464844 L 9.773438 14.464844 L 9.8125 15.242188 C 9.976562 14.960938 10.21875 14.730469 10.507812 14.574219 C 10.792969 14.417969 11.117188 14.34375 11.445312 14.359375 C 12.558594 14.359375 13.394531 15.285156 13.394531 16.664062 C 13.394531 18.292969 12.386719 19.097656 11.300781 19.097656 C 11.023438 19.113281 10.75 19.050781 10.5 18.925781 C 10.25 18.800781 10.039062 18.613281 9.886719 18.382812 L 9.886719 20.871094 L 9.0625 20.871094 Z M 9.886719 17.15625 C 9.886719 17.265625 9.902344 17.378906 9.921875 17.488281 C 9.996094 17.765625 10.15625 18.011719 10.382812 18.183594 C 10.609375 18.359375 10.886719 18.453125 11.171875 18.453125 C 12.050781 18.453125 12.570312 17.738281 12.570312 16.699219 C 12.570312 15.792969 12.082031 15.015625 11.203125 15.015625 C 10.855469 15.046875 10.527344 15.199219 10.285156 15.449219 C 10.042969 15.699219 9.902344 16.03125 9.886719 16.378906 Z M 14.882812 14.460938 L 15.886719 17.136719 C 15.996094 17.4375 16.105469 17.796875 16.179688 18.0625 C 16.269531 17.789062 16.363281 17.441406 16.476562 17.121094 L 17.386719 14.460938 L 18.265625 14.460938 L 17.019531 17.691406 C 16.394531 19.246094 16.011719 20.046875 15.4375 20.53125 C 15.148438 20.792969 14.796875 20.976562 14.414062 21.066406 L 14.210938 20.367188 C 14.476562 20.28125 14.722656 20.144531 14.941406 19.964844 C 15.242188 19.71875 15.484375 19.402344 15.644531 19.046875 C 15.679688 18.984375 15.703125 18.917969 15.714844 18.847656 C 15.707031 18.773438 15.6875 18.699219 15.65625 18.628906 L 13.960938 14.449219 L 14.871094 14.449219 Z M 20.484375 13.15625 L 20.484375 14.460938 L 21.683594 14.460938 L 21.683594 15.082031 L 20.484375 15.082031 L 20.484375 17.53125 C 20.484375 18.089844 20.648438 18.414062 21.109375 18.414062 C 21.273438 18.414062 21.4375 18.398438 21.597656 18.355469 L 21.632812 18.976562 C 21.394531 19.0625 21.144531 19.097656 20.890625 19.089844 C 20.722656 19.101562 20.558594 19.074219 20.402344 19.015625 C 20.246094 18.953125 20.101562 18.863281 19.988281 18.742188 C 19.734375 18.402344 19.617188 17.980469 19.664062 17.5625 L 19.664062 15.078125 L 18.949219 15.078125 L 18.949219 14.457031 L 19.675781 14.457031 L 19.675781 13.347656 Z M 23.226562 16.875 C 23.207031 17.085938 23.238281 17.296875 23.308594 17.496094 C 23.382812 17.695312 23.5 17.875 23.648438 18.023438 C 23.800781 18.175781 23.980469 18.289062 24.179688 18.363281 C 24.378906 18.433594 24.59375 18.464844 24.804688 18.449219 C 25.230469 18.457031 25.65625 18.375 26.050781 18.210938 L 26.195312 18.832031 C 25.710938 19.03125 25.191406 19.125 24.667969 19.113281 C 24.359375 19.132812 24.054688 19.089844 23.769531 18.980469 C 23.484375 18.871094 23.222656 18.703125 23.007812 18.484375 C 22.792969 18.269531 22.628906 18.007812 22.527344 17.722656 C 22.421875 17.433594 22.382812 17.128906 22.40625 16.824219 C 22.40625 15.457031 23.226562 14.378906 24.558594 14.378906 C 26.058594 14.378906 26.433594 15.683594 26.433594 16.515625 C 26.441406 16.644531 26.441406 16.773438 26.433594 16.902344 L 23.207031 16.902344 Z M 25.671875 16.253906 C 25.695312 16.089844 25.683594 15.917969 25.636719 15.757812 C 25.589844 15.597656 25.507812 15.449219 25.398438 15.320312 C 25.289062 15.191406 25.152344 15.089844 25 15.019531 C 24.84375 14.949219 24.679688 14.914062 24.511719 14.914062 C 24.167969 14.9375 23.847656 15.089844 23.609375 15.335938 C 23.371094 15.585938 23.238281 15.910156 23.230469 16.253906 Z M 27.703125 15.871094 C 27.703125 15.339844 27.703125 14.878906 27.664062 14.457031 L 28.414062 14.457031 L 28.414062 15.34375 L 28.449219 15.34375 C 28.527344 15.070312 28.691406 14.828125 28.914062 14.648438 C 29.136719 14.472656 29.414062 14.367188 29.699219 14.351562 C 29.777344 14.339844 29.855469 14.339844 29.9375 14.351562 L 29.9375 15.128906 C 29.839844 15.117188 29.742188 15.117188 29.648438 15.128906 C 29.367188 15.136719 29.09375 15.25 28.890625 15.445312 C 28.683594 15.640625 28.558594 15.902344 28.53125 16.183594 C 28.507812 16.3125 28.496094 16.441406 28.492188 16.570312 L 28.492188 18.984375 L 27.671875 18.984375 L 27.671875 15.878906 Z M 27.703125 15.871094 "/>
<path style=" stroke:none;fill-rule:nonzero;fill:rgb(46.27451%,46.27451%,46.666667%);fill-opacity:1;" d="M 27.335938 1.980469 C 27.359375 2.394531 27.261719 2.8125 27.046875 3.171875 C 26.835938 3.535156 26.519531 3.824219 26.140625 4.003906 C 25.765625 4.1875 25.339844 4.25 24.921875 4.191406 C 24.507812 4.132812 24.121094 3.953125 23.808594 3.671875 C 23.496094 3.390625 23.273438 3.027344 23.171875 2.621094 C 23.070312 2.214844 23.089844 1.789062 23.230469 1.394531 C 23.375 1 23.632812 0.660156 23.96875 0.410156 C 24.308594 0.164062 24.710938 0.0195312 25.132812 0.00390625 C 25.40625 -0.0117188 25.683594 0.0273438 25.941406 0.117188 C 26.203125 0.210938 26.441406 0.351562 26.644531 0.535156 C 26.851562 0.71875 27.015625 0.941406 27.136719 1.1875 C 27.253906 1.4375 27.320312 1.703125 27.335938 1.980469 Z M 27.335938 1.980469 "/>
<path style=" stroke:none;fill-rule:nonzero;fill:rgb(95.294118%,46.666667%,14.901961%);fill-opacity:1;" d="M 14.996094 26.3125 C 9.378906 26.3125 4.441406 24.304688 1.890625 21.34375 C 2.878906 24.007812 4.667969 26.308594 7.007812 27.933594 C 9.351562 29.558594 12.140625 30.429688 14.996094 30.429688 C 17.851562 30.429688 20.636719 29.558594 22.980469 27.933594 C 25.324219 26.308594 27.109375 24.007812 28.101562 21.34375 C 25.554688 24.304688 20.636719 26.3125 14.996094 26.3125 Z M 14.996094 26.3125 "/>
<path style=" stroke:none;fill-rule:nonzero;fill:rgb(95.294118%,46.666667%,14.901961%);fill-opacity:1;" d="M 14.996094 7.042969 C 20.609375 7.042969 25.546875 9.046875 28.101562 12.011719 C 27.109375 9.34375 25.324219 7.046875 22.980469 5.421875 C 20.636719 3.796875 17.851562 2.925781 14.996094 2.925781 C 12.140625 2.925781 9.351562 3.796875 7.007812 5.421875 C 4.667969 7.046875 2.878906 9.34375 1.890625 12.011719 C 4.441406 9.042969 9.351562 7.042969 14.996094 7.042969 Z M 14.996094 7.042969 "/>
<path style=" stroke:none;fill-rule:nonzero;fill:rgb(61.960784%,61.960784%,61.960784%);fill-opacity:1;" d="M 7.261719 32.082031 C 7.296875 32.605469 7.171875 33.128906 6.902344 33.585938 C 6.636719 34.039062 6.238281 34.40625 5.761719 34.632812 C 5.285156 34.863281 4.753906 34.945312 4.226562 34.871094 C 3.703125 34.796875 3.214844 34.570312 2.820312 34.21875 C 2.425781 33.867188 2.148438 33.40625 2.019531 32.894531 C 1.890625 32.382812 1.914062 31.847656 2.09375 31.351562 C 2.273438 30.855469 2.59375 30.421875 3.019531 30.109375 C 3.445312 29.796875 3.957031 29.617188 4.484375 29.59375 C 4.832031 29.578125 5.179688 29.625 5.503906 29.742188 C 5.832031 29.855469 6.132812 30.035156 6.390625 30.265625 C 6.648438 30.496094 6.859375 30.773438 7.007812 31.085938 C 7.15625 31.398438 7.242188 31.734375 7.261719 32.082031 Z M 7.261719 32.082031 "/>
<path style=" stroke:none;fill-rule:nonzero;fill:rgb(38.039216%,38.431373%,38.431373%);fill-opacity:1;" d="M 2.527344 6.367188 C 2.222656 6.375 1.925781 6.292969 1.667969 6.132812 C 1.414062 5.972656 1.210938 5.742188 1.085938 5.464844 C 0.960938 5.191406 0.921875 4.886719 0.96875 4.589844 C 1.019531 4.292969 1.15625 4.015625 1.363281 3.796875 C 1.570312 3.574219 1.835938 3.421875 2.132812 3.351562 C 2.425781 3.28125 2.734375 3.300781 3.019531 3.40625 C 3.300781 3.507812 3.546875 3.695312 3.726562 3.941406 C 3.90625 4.183594 4.007812 4.472656 4.019531 4.773438 C 4.03125 5.183594 3.878906 5.578125 3.601562 5.875 C 3.320312 6.171875 2.9375 6.351562 2.527344 6.367188 Z M 2.527344 6.367188 "/>
</g>
</svg>
