<?xml version="1.0" encoding="UTF-8"?>
<svg xmlns="http://www.w3.org/2000/svg" xmlns:xlink="http://www.w3.org/1999/xlink" width="40pt" height="40pt" viewBox="0 0 40 40" version="1.1">
<g id="surface1">
<path style=" stroke:none;fill-rule:nonzero;fill:rgb(100%,100%,100%);fill-opacity:1;" d="M 20.261719 8.609375 C 20.253906 8.546875 20.253906 8.484375 20.253906 8.421875 C 20.253906 7.519531 20.84375 6.78125 21.574219 6.78125 C 22.316406 6.78125 22.902344 7.503906 22.902344 8.421875 C 22.902344 8.632812 22.871094 8.832031 22.8125 9.015625 C 23.03125 8.671875 23.15625 8.234375 23.15625 7.777344 C 23.15625 6.675781 22.453125 5.78125 21.589844 5.78125 C 20.726562 5.78125 20.023438 6.675781 20.023438 7.777344 C 20.023438 8.046875 20.066406 8.3125 20.148438 8.566406 C 20.183594 8.578125 20.222656 8.59375 20.261719 8.609375 Z M 20.261719 8.609375 "/>
<path style=" stroke:none;fill-rule:nonzero;fill:rgb(100%,100%,100%);fill-opacity:1;" d="M 16.359375 6.867188 C 16.40625 6.863281 16.449219 6.859375 16.492188 6.859375 C 17.074219 6.859375 17.59375 7.425781 17.730469 8.210938 C 17.742188 8.296875 17.75 8.382812 17.753906 8.46875 C 17.792969 8.449219 17.832031 8.429688 17.871094 8.414062 C 17.890625 8.277344 17.898438 8.148438 17.898438 8.023438 C 17.898438 7.007812 17.359375 6.152344 16.726562 6.152344 C 16.183594 6.152344 15.726562 6.746094 15.597656 7.554688 C 15.746094 7.183594 16.015625 6.925781 16.359375 6.867188 Z M 16.359375 6.867188 "/>
<path style=" stroke:none;fill-rule:nonzero;fill:rgb(100%,100%,100%);fill-opacity:1;" d="M 27.273438 27.332031 C 27.417969 26.714844 27.707031 25.136719 27.433594 23.230469 C 27.085938 20.816406 23.695312 13.308594 23.109375 12.46875 C 22.769531 12.515625 21.863281 13.039062 21.128906 13.464844 C 20.277344 13.957031 19.398438 14.464844 18.800781 14.636719 C 18.675781 14.671875 18.542969 14.691406 18.410156 14.691406 C 17.535156 14.691406 16.585938 13.949219 15.976562 13.367188 C 15.871094 14.5 15.265625 15.933594 14.617188 16.671875 C 14.203125 17.144531 13.835938 18.222656 13.480469 19.265625 C 13.148438 20.230469 12.808594 21.230469 12.390625 21.890625 C 11.546875 23.207031 11.0625 25.761719 11.675781 27.214844 C 11.976562 27.917969 13.054688 28.75 14.007812 29.484375 C 15.171875 30.382812 16.175781 31.15625 16.289062 31.9375 C 16.417969 32.863281 15.925781 33.375 15.433594 33.617188 L 16.679688 35.046875 C 16.875 35.074219 17.335938 35.128906 18.0625 35.128906 C 18.914062 35.128906 19.859375 35.054688 20.871094 34.910156 C 23.351562 34.542969 25.078125 32.496094 25.421875 32.0625 C 25.421875 31.488281 25.441406 28.929688 25.609375 28.128906 C 25.671875 27.820312 25.921875 27.304688 26.867188 27.304688 C 27.015625 27.304688 27.15625 27.316406 27.273438 27.332031 Z M 27.273438 27.332031 "/>
<path style=" stroke:none;fill-rule:nonzero;fill:rgb(90.196078%,58.823529%,16.078431%);fill-opacity:1;" d="M 16.445312 11.492188 C 16.492188 11.679688 16.921875 12.164062 17.59375 12.601562 C 17.6875 12.664062 17.777344 12.726562 17.863281 12.78125 C 18.234375 13.035156 18.398438 13.136719 18.664062 13.101562 C 19.058594 13.050781 20.507812 12.171875 21.125 11.796875 L 21.28125 11.703125 C 21.511719 11.5625 21.695312 11.46875 21.84375 11.390625 C 22.136719 11.238281 22.164062 11.214844 22.175781 11.15625 C 22.140625 11.070312 21.867188 10.839844 21.34375 10.660156 C 21.175781 10.601562 20.941406 10.507812 20.667969 10.398438 C 20.074219 10.160156 19.261719 9.835938 18.933594 9.777344 C 18.917969 9.777344 18.90625 9.773438 18.890625 9.773438 C 18.609375 9.773438 18.042969 10.125 17.480469 10.648438 C 17.203125 10.898438 16.664062 11.320312 16.445312 11.492188 Z M 16.445312 11.492188 "/>
<path style=" stroke:none;fill-rule:nonzero;fill:rgb(90.196078%,58.823529%,16.078431%);fill-opacity:1;" d="M 11.496094 30.902344 C 11.253906 30.492188 11.042969 30.140625 10.929688 29.964844 C 10.480469 29.265625 9.703125 28.488281 9.332031 28.488281 C 9.296875 28.488281 9.28125 28.496094 9.269531 28.5 C 9.074219 28.613281 8.90625 28.957031 8.746094 29.289062 C 8.523438 29.75 8.269531 30.269531 7.804688 30.550781 C 7.460938 30.761719 6.933594 30.875 6.425781 30.984375 C 6.0625 31.0625 5.214844 31.246094 5.175781 31.417969 C 5.121094 31.652344 5.171875 31.890625 5.234375 32.195312 C 5.3125 32.550781 5.40625 32.996094 5.324219 33.542969 C 5.269531 33.886719 5.164062 34.210938 5.0625 34.527344 C 4.921875 34.96875 4.765625 35.46875 4.902344 35.621094 C 5.070312 35.773438 6.089844 35.9375 6.832031 36.058594 C 7.769531 36.207031 8.734375 36.363281 9.328125 36.613281 L 9.484375 36.679688 C 10.546875 37.125 12.519531 37.953125 13.519531 37.953125 C 13.609375 37.953125 13.6875 37.949219 13.75 37.933594 C 13.921875 37.816406 14.648438 37.292969 14.785156 36.652344 C 14.972656 35.820312 14.214844 34.851562 13.742188 34.351562 C 13.222656 33.789062 12.226562 32.121094 11.496094 30.902344 Z M 11.496094 30.902344 "/>
<path style=" stroke:none;fill-rule:nonzero;fill:rgb(90.196078%,58.823529%,16.078431%);fill-opacity:1;" d="M 34.042969 32.886719 L 33.921875 32.824219 C 33.085938 32.382812 32.648438 31.183594 32.707031 30.28125 C 32.71875 30.117188 32.695312 29.988281 32.664062 29.886719 C 32.507812 30.140625 32.289062 30.460938 32.027344 30.722656 C 31.582031 31.167969 30.496094 31.648438 29.519531 31.648438 C 29.152344 31.648438 28.820312 31.582031 28.53125 31.457031 C 27.554688 31.03125 27.421875 29.808594 27.417969 29.199219 C 27.402344 29.203125 27.390625 29.207031 27.378906 29.210938 C 27.320312 29.421875 27.375 30.132812 27.414062 30.613281 C 27.4375 30.871094 27.457031 31.132812 27.46875 31.378906 C 27.527344 32.449219 27.183594 34.265625 26.890625 35.601562 C 26.609375 36.90625 27.128906 37.824219 27.765625 38.023438 C 27.824219 38.039062 27.886719 38.046875 27.957031 38.046875 C 28.542969 38.046875 29.511719 37.441406 30.367188 36.542969 C 30.976562 35.902344 32.328125 35.210938 33.523438 34.601562 C 34.199219 34.257812 34.894531 33.902344 35.09375 33.71875 C 35.136719 33.679688 35.144531 33.65625 35.144531 33.65625 C 35.132812 33.460938 34.339844 33.042969 34.042969 32.886719 Z M 34.042969 32.886719 "/>
<path style=" stroke:none;fill-rule:nonzero;fill:rgb(0%,0%,0%);fill-opacity:1;" d="M 36.019531 32.117188 C 34.847656 31.636719 34.347656 31 34.394531 30.046875 C 34.445312 28.9375 33.816406 28.125 33.515625 27.800781 C 33.695312 27.113281 34.222656 24.722656 33.515625 22.648438 C 32.753906 20.429688 30.429688 17.039062 28.035156 13.703125 C 27.050781 12.335938 27.003906 10.847656 26.953125 9.125 C 26.898438 7.480469 26.84375 5.617188 25.925781 3.546875 C 24.929688 1.292969 22.929688 0 20.441406 0 C 18.957031 0 17.4375 0.464844 16.269531 1.269531 C 13.871094 2.921875 14.1875 6.527344 14.398438 8.914062 C 14.425781 9.242188 14.453125 9.550781 14.46875 9.8125 C 14.609375 12.148438 14.480469 13.382812 14.316406 13.753906 C 14.207031 14 13.679688 14.695312 13.121094 15.433594 C 12.542969 16.195312 11.886719 17.058594 11.347656 17.863281 C 10.707031 18.832031 10.1875 20.316406 9.6875 21.746094 C 9.320312 22.792969 8.972656 23.785156 8.636719 24.375 C 8 25.511719 8.15625 26.574219 8.289062 27.066406 C 8.046875 27.234375 7.699219 27.5625 7.402344 28.1875 C 7.046875 28.949219 6.324219 29.355469 4.820312 29.644531 C 4.128906 29.789062 3.652344 30.078125 3.402344 30.507812 C 3.039062 31.136719 3.238281 31.925781 3.417969 32.46875 C 3.683594 33.261719 3.519531 33.761719 3.214844 34.671875 C 3.148438 34.882812 3.066406 35.121094 2.988281 35.386719 C 2.863281 35.800781 2.90625 36.175781 3.121094 36.503906 C 3.691406 37.375 5.347656 37.679688 7.054688 37.882812 C 8.074219 38.003906 9.1875 38.410156 10.265625 38.804688 C 11.324219 39.191406 12.417969 39.589844 13.410156 39.710938 C 13.558594 39.730469 13.710938 39.738281 13.855469 39.738281 C 15.351562 39.738281 16.03125 38.742188 16.246094 38.335938 C 16.785156 38.226562 18.640625 37.875 20.558594 37.824219 C 22.46875 37.773438 24.316406 38.148438 24.84375 38.265625 C 25.007812 38.582031 25.441406 39.300781 26.132812 39.671875 C 26.511719 39.878906 27.042969 40 27.585938 40 C 28.164062 40 29.265625 39.863281 30.136719 38.945312 C 31.007812 38.023438 33.179688 36.847656 34.769531 35.988281 C 35.121094 35.796875 35.453125 35.617188 35.742188 35.453125 C 36.636719 34.960938 37.121094 34.253906 37.078125 33.519531 C 37.042969 32.90625 36.636719 32.367188 36.019531 32.117188 Z M 21.589844 5.78125 C 22.453125 5.78125 23.15625 6.675781 23.15625 7.777344 C 23.15625 8.234375 23.03125 8.671875 22.8125 9.015625 C 22.871094 8.832031 22.902344 8.632812 22.902344 8.421875 C 22.902344 7.503906 22.316406 6.78125 21.574219 6.78125 C 20.84375 6.78125 20.253906 7.519531 20.253906 8.421875 C 20.253906 8.484375 20.253906 8.546875 20.261719 8.609375 C 20.222656 8.59375 20.183594 8.578125 20.148438 8.566406 C 20.0625 8.3125 20.023438 8.046875 20.023438 7.777344 C 20.023438 6.675781 20.726562 5.78125 21.589844 5.78125 Z M 18.933594 9.777344 C 19.261719 9.835938 20.074219 10.160156 20.664062 10.398438 C 20.941406 10.507812 21.175781 10.601562 21.34375 10.660156 C 21.867188 10.839844 22.140625 11.070312 22.175781 11.15625 C 22.164062 11.214844 22.136719 11.238281 21.84375 11.390625 C 21.695312 11.46875 21.511719 11.5625 21.28125 11.703125 L 21.125 11.796875 C 20.507812 12.171875 19.058594 13.050781 18.664062 13.101562 C 18.398438 13.136719 18.234375 13.035156 17.863281 12.78125 C 17.777344 12.726562 17.6875 12.664062 17.59375 12.605469 C 16.921875 12.164062 16.492188 11.679688 16.445312 11.492188 C 16.664062 11.320312 17.203125 10.898438 17.480469 10.648438 C 18.042969 10.125 18.609375 9.773438 18.890625 9.773438 C 18.90625 9.773438 18.917969 9.777344 18.933594 9.777344 Z M 16.722656 6.148438 C 17.359375 6.148438 17.898438 7.007812 17.898438 8.023438 C 17.898438 8.148438 17.886719 8.277344 17.871094 8.414062 C 17.832031 8.429688 17.792969 8.449219 17.753906 8.464844 C 17.75 8.382812 17.742188 8.296875 17.726562 8.210938 C 17.59375 7.425781 17.074219 6.859375 16.492188 6.859375 C 16.449219 6.859375 16.40625 6.863281 16.359375 6.867188 C 16.015625 6.925781 15.746094 7.183594 15.597656 7.550781 C 15.726562 6.746094 16.183594 6.148438 16.722656 6.148438 Z M 14.785156 36.652344 C 14.648438 37.292969 13.921875 37.816406 13.75 37.933594 C 13.6875 37.949219 13.609375 37.953125 13.519531 37.953125 C 12.519531 37.953125 10.546875 37.125 9.484375 36.679688 L 9.328125 36.613281 C 8.734375 36.363281 7.769531 36.207031 6.832031 36.058594 C 6.089844 35.9375 5.070312 35.773438 4.902344 35.621094 C 4.765625 35.46875 4.921875 34.96875 5.0625 34.527344 C 5.164062 34.210938 5.269531 33.886719 5.324219 33.542969 C 5.40625 32.996094 5.3125 32.550781 5.234375 32.195312 C 5.171875 31.890625 5.121094 31.652344 5.175781 31.417969 C 5.214844 31.246094 6.0625 31.0625 6.425781 30.984375 C 6.933594 30.875 7.460938 30.761719 7.804688 30.550781 C 8.269531 30.269531 8.523438 29.75 8.746094 29.289062 C 8.90625 28.957031 9.074219 28.613281 9.269531 28.5 C 9.28125 28.496094 9.296875 28.488281 9.332031 28.488281 C 9.703125 28.488281 10.480469 29.265625 10.929688 29.964844 C 11.042969 30.140625 11.253906 30.492188 11.496094 30.902344 C 12.226562 32.121094 13.222656 33.789062 13.742188 34.351562 C 14.214844 34.851562 14.972656 35.820312 14.785156 36.652344 Z M 25.609375 28.128906 C 25.441406 28.929688 25.421875 31.488281 25.421875 32.0625 C 25.078125 32.496094 23.351562 34.542969 20.871094 34.910156 C 19.859375 35.054688 18.914062 35.128906 18.0625 35.128906 C 17.335938 35.128906 16.875 35.074219 16.679688 35.046875 L 15.433594 33.617188 C 15.925781 33.375 16.417969 32.863281 16.289062 31.9375 C 16.175781 31.15625 15.171875 30.382812 14.007812 29.484375 C 13.054688 28.75 11.976562 27.917969 11.675781 27.214844 C 11.0625 25.761719 11.546875 23.207031 12.390625 21.890625 C 12.808594 21.230469 13.148438 20.230469 13.480469 19.265625 C 13.835938 18.222656 14.203125 17.144531 14.617188 16.671875 C 15.269531 15.933594 15.871094 14.5 15.976562 13.367188 C 16.585938 13.949219 17.535156 14.691406 18.410156 14.691406 C 18.542969 14.691406 18.675781 14.671875 18.800781 14.636719 C 19.398438 14.464844 20.277344 13.957031 21.128906 13.464844 C 21.863281 13.039062 22.769531 12.515625 23.109375 12.46875 C 23.695312 13.308594 27.085938 20.816406 27.433594 23.230469 C 27.707031 25.136719 27.417969 26.714844 27.273438 27.332031 C 27.15625 27.316406 27.015625 27.304688 26.867188 27.304688 C 25.921875 27.304688 25.671875 27.820312 25.609375 28.128906 Z M 35.09375 33.71875 C 34.894531 33.902344 34.199219 34.257812 33.523438 34.601562 C 32.332031 35.210938 30.976562 35.902344 30.367188 36.542969 C 29.511719 37.445312 28.542969 38.050781 27.957031 38.050781 C 27.886719 38.050781 27.824219 38.039062 27.765625 38.023438 C 27.132812 37.824219 26.609375 36.90625 26.890625 35.601562 C 27.183594 34.265625 27.527344 32.449219 27.472656 31.378906 C 27.457031 31.132812 27.4375 30.871094 27.414062 30.613281 C 27.375 30.136719 27.320312 29.421875 27.378906 29.210938 C 27.390625 29.207031 27.402344 29.203125 27.417969 29.199219 C 27.421875 29.808594 27.554688 31.03125 28.53125 31.457031 C 28.820312 31.585938 29.152344 31.648438 29.519531 31.648438 C 30.496094 31.648438 31.582031 31.167969 32.027344 30.722656 C 32.289062 30.460938 32.507812 30.140625 32.664062 29.886719 C 32.695312 29.988281 32.71875 30.117188 32.707031 30.28125 C 32.648438 31.183594 33.085938 32.382812 33.921875 32.824219 L 34.042969 32.890625 C 34.339844 33.042969 35.132812 33.460938 35.144531 33.65625 C 35.144531 33.65625 35.136719 33.679688 35.09375 33.71875 Z M 35.09375 33.71875 "/>
</g>
</svg>
