<?xml version="1.0" encoding="UTF-8"?>
<svg xmlns="http://www.w3.org/2000/svg" xmlns:xlink="http://www.w3.org/1999/xlink" width="30pt" height="30pt" viewBox="0 0 30 30" version="1.1">
<g id="surface1">
<path style=" stroke:none;fill-rule:nonzero;fill:rgb(100%,100%,100%);fill-opacity:1;" d="M 15.195312 6.457031 C 15.191406 6.410156 15.1875 6.363281 15.1875 6.316406 C 15.1875 5.640625 15.632812 5.085938 16.179688 5.085938 C 16.738281 5.085938 17.175781 5.628906 17.175781 6.316406 C 17.175781 6.472656 17.152344 6.625 17.109375 6.761719 C 17.273438 6.503906 17.367188 6.175781 17.367188 5.832031 C 17.367188 5.007812 16.839844 4.335938 16.191406 4.335938 C 15.542969 4.335938 15.015625 5.007812 15.015625 5.832031 C 15.015625 6.035156 15.046875 6.234375 15.113281 6.421875 C 15.140625 6.433594 15.167969 6.445312 15.195312 6.457031 Z M 15.195312 6.457031 "/>
<path style=" stroke:none;fill-rule:nonzero;fill:rgb(100%,100%,100%);fill-opacity:1;" d="M 12.269531 5.152344 C 12.304688 5.144531 12.335938 5.144531 12.371094 5.144531 C 12.804688 5.144531 13.195312 5.570312 13.296875 6.160156 C 13.308594 6.222656 13.3125 6.285156 13.316406 6.351562 C 13.34375 6.335938 13.371094 6.324219 13.402344 6.308594 C 13.417969 6.207031 13.421875 6.113281 13.421875 6.015625 C 13.421875 5.253906 13.019531 4.613281 12.542969 4.613281 C 12.136719 4.613281 11.796875 5.058594 11.699219 5.664062 C 11.808594 5.390625 12.011719 5.195312 12.269531 5.152344 Z M 12.269531 5.152344 "/>
<path style=" stroke:none;fill-rule:nonzero;fill:rgb(100%,100%,100%);fill-opacity:1;" d="M 20.453125 20.5 C 20.5625 20.035156 20.78125 18.851562 20.574219 17.421875 C 20.316406 15.613281 17.769531 9.980469 17.332031 9.351562 C 17.078125 9.386719 16.398438 9.78125 15.847656 10.097656 C 15.210938 10.46875 14.546875 10.847656 14.101562 10.976562 C 14.007812 11.003906 13.90625 11.019531 13.808594 11.019531 C 13.152344 11.019531 12.441406 10.464844 11.984375 10.027344 C 11.902344 10.875 11.449219 11.949219 10.960938 12.503906 C 10.652344 12.855469 10.375 13.667969 10.109375 14.449219 C 9.863281 15.171875 9.605469 15.921875 9.292969 16.417969 C 8.660156 17.402344 8.296875 19.320312 8.757812 20.410156 C 8.980469 20.9375 9.789062 21.5625 10.503906 22.113281 C 11.378906 22.785156 12.132812 23.367188 12.214844 23.953125 C 12.3125 24.648438 11.945312 25.03125 11.574219 25.214844 L 12.511719 26.285156 C 12.65625 26.304688 13.003906 26.347656 13.546875 26.347656 C 14.1875 26.347656 14.894531 26.292969 15.652344 26.183594 C 17.511719 25.90625 18.808594 24.371094 19.066406 24.046875 C 19.066406 23.617188 19.082031 21.695312 19.207031 21.097656 C 19.253906 20.863281 19.441406 20.476562 20.152344 20.476562 C 20.261719 20.476562 20.367188 20.488281 20.453125 20.5 Z M 20.453125 20.5 "/>
<path style=" stroke:none;fill-rule:nonzero;fill:rgb(90.196078%,58.823529%,16.078431%);fill-opacity:1;" d="M 12.332031 8.617188 C 12.371094 8.761719 12.691406 9.121094 13.195312 9.453125 C 13.265625 9.5 13.332031 9.542969 13.394531 9.585938 C 13.675781 9.777344 13.796875 9.855469 14 9.828125 C 14.292969 9.789062 15.378906 9.128906 15.84375 8.847656 L 15.960938 8.777344 C 16.132812 8.671875 16.269531 8.601562 16.382812 8.542969 C 16.601562 8.429688 16.621094 8.410156 16.632812 8.367188 C 16.605469 8.304688 16.402344 8.128906 16.007812 7.996094 C 15.882812 7.949219 15.707031 7.878906 15.5 7.796875 C 15.054688 7.621094 14.445312 7.378906 14.199219 7.332031 C 14.1875 7.332031 14.179688 7.332031 14.167969 7.332031 C 13.957031 7.332031 13.53125 7.59375 13.109375 7.988281 C 12.902344 8.175781 12.496094 8.492188 12.332031 8.617188 Z M 12.332031 8.617188 "/>
<path style=" stroke:none;fill-rule:nonzero;fill:rgb(90.196078%,58.823529%,16.078431%);fill-opacity:1;" d="M 8.621094 23.175781 C 8.4375 22.871094 8.28125 22.605469 8.195312 22.472656 C 7.859375 21.949219 7.277344 21.367188 7 21.367188 C 6.972656 21.367188 6.960938 21.371094 6.953125 21.375 C 6.804688 21.460938 6.679688 21.71875 6.558594 21.96875 C 6.390625 22.3125 6.203125 22.703125 5.855469 22.914062 C 5.59375 23.070312 5.199219 23.15625 4.816406 23.238281 C 4.546875 23.296875 3.910156 23.4375 3.878906 23.566406 C 3.839844 23.738281 3.878906 23.917969 3.925781 24.144531 C 3.984375 24.414062 4.054688 24.746094 3.996094 25.15625 C 3.953125 25.414062 3.875 25.660156 3.796875 25.898438 C 3.691406 26.226562 3.574219 26.601562 3.675781 26.71875 C 3.804688 26.828125 4.566406 26.953125 5.125 27.042969 C 5.828125 27.15625 6.550781 27.273438 6.996094 27.460938 L 7.113281 27.507812 C 7.910156 27.84375 9.390625 28.464844 10.140625 28.464844 C 10.207031 28.464844 10.265625 28.460938 10.3125 28.449219 C 10.441406 28.363281 10.988281 27.96875 11.089844 27.488281 C 11.230469 26.867188 10.660156 26.140625 10.308594 25.761719 C 9.917969 25.34375 9.167969 24.089844 8.621094 23.175781 Z M 8.621094 23.175781 "/>
<path style=" stroke:none;fill-rule:nonzero;fill:rgb(90.196078%,58.823529%,16.078431%);fill-opacity:1;" d="M 25.53125 24.667969 L 25.441406 24.617188 C 24.816406 24.289062 24.484375 23.390625 24.53125 22.710938 C 24.539062 22.585938 24.523438 22.488281 24.496094 22.414062 C 24.382812 22.605469 24.214844 22.847656 24.019531 23.042969 C 23.6875 23.375 22.871094 23.734375 22.140625 23.734375 C 21.863281 23.734375 21.617188 23.6875 21.398438 23.59375 C 20.664062 23.273438 20.566406 22.359375 20.5625 21.898438 C 20.550781 21.902344 20.542969 21.90625 20.535156 21.910156 C 20.488281 22.066406 20.53125 22.601562 20.5625 22.960938 C 20.578125 23.152344 20.59375 23.351562 20.601562 23.53125 C 20.644531 24.335938 20.386719 25.699219 20.167969 26.699219 C 19.957031 27.679688 20.347656 28.367188 20.824219 28.515625 C 20.867188 28.53125 20.914062 28.535156 20.96875 28.535156 C 21.40625 28.535156 22.132812 28.082031 22.777344 27.40625 C 23.230469 26.925781 24.246094 26.40625 25.144531 25.949219 C 25.648438 25.691406 26.171875 25.425781 26.320312 25.289062 C 26.351562 25.257812 26.359375 25.242188 26.359375 25.242188 C 26.347656 25.09375 25.753906 24.785156 25.53125 24.667969 Z M 25.53125 24.667969 "/>
<path style=" stroke:none;fill-rule:nonzero;fill:rgb(0%,0%,0%);fill-opacity:1;" d="M 27.015625 24.085938 C 26.136719 23.726562 25.757812 23.25 25.796875 22.535156 C 25.832031 21.703125 25.359375 21.09375 25.136719 20.851562 C 25.273438 20.335938 25.667969 18.542969 25.136719 16.988281 C 24.566406 15.320312 22.824219 12.777344 21.023438 10.277344 C 20.289062 9.253906 20.253906 8.136719 20.214844 6.84375 C 20.175781 5.609375 20.132812 4.214844 19.445312 2.660156 C 18.695312 0.96875 17.195312 0 15.328125 0 C 14.21875 0 13.078125 0.347656 12.199219 0.953125 C 10.402344 2.191406 10.640625 4.898438 10.796875 6.6875 C 10.820312 6.929688 10.839844 7.164062 10.851562 7.359375 C 10.957031 9.113281 10.863281 10.035156 10.738281 10.316406 C 10.65625 10.5 10.261719 11.023438 9.839844 11.574219 C 9.40625 12.148438 8.914062 12.792969 8.511719 13.398438 C 8.03125 14.125 7.640625 15.234375 7.265625 16.308594 C 6.988281 17.09375 6.730469 17.839844 6.476562 18.28125 C 6 19.136719 6.117188 19.929688 6.21875 20.296875 C 6.035156 20.425781 5.773438 20.671875 5.550781 21.140625 C 5.285156 21.710938 4.742188 22.015625 3.613281 22.234375 C 3.097656 22.339844 2.738281 22.558594 2.550781 22.882812 C 2.28125 23.351562 2.429688 23.945312 2.5625 24.351562 C 2.761719 24.945312 2.640625 25.320312 2.414062 26.003906 C 2.359375 26.164062 2.300781 26.339844 2.242188 26.539062 C 2.148438 26.851562 2.179688 27.132812 2.34375 27.378906 C 2.769531 28.03125 4.011719 28.261719 5.289062 28.410156 C 6.054688 28.5 6.890625 28.808594 7.699219 29.101562 C 8.492188 29.390625 9.3125 29.691406 10.058594 29.78125 C 10.171875 29.796875 10.28125 29.804688 10.390625 29.804688 C 11.515625 29.804688 12.023438 29.058594 12.183594 28.75 C 12.589844 28.667969 13.980469 28.40625 15.417969 28.371094 C 16.851562 28.328125 18.238281 28.613281 18.632812 28.699219 C 18.753906 28.9375 19.082031 29.476562 19.601562 29.753906 C 19.886719 29.910156 20.28125 30 20.6875 30 C 21.125 30 21.949219 29.898438 22.605469 29.210938 C 23.257812 28.519531 24.886719 27.636719 26.074219 26.992188 C 26.339844 26.847656 26.589844 26.710938 26.808594 26.589844 C 27.476562 26.21875 27.839844 25.691406 27.808594 25.136719 C 27.78125 24.679688 27.476562 24.277344 27.015625 24.085938 Z M 16.191406 4.335938 C 16.839844 4.335938 17.367188 5.007812 17.367188 5.832031 C 17.367188 6.175781 17.273438 6.503906 17.109375 6.761719 C 17.152344 6.625 17.175781 6.472656 17.175781 6.316406 C 17.175781 5.628906 16.738281 5.085938 16.179688 5.085938 C 15.632812 5.085938 15.1875 5.640625 15.1875 6.316406 C 15.1875 6.363281 15.191406 6.410156 15.195312 6.457031 C 15.167969 6.445312 15.140625 6.433594 15.109375 6.421875 C 15.046875 6.234375 15.015625 6.035156 15.015625 5.832031 C 15.015625 5.007812 15.542969 4.335938 16.191406 4.335938 Z M 14.199219 7.332031 C 14.445312 7.378906 15.054688 7.621094 15.5 7.796875 C 15.703125 7.878906 15.882812 7.949219 16.007812 7.996094 C 16.402344 8.132812 16.605469 8.304688 16.632812 8.367188 C 16.621094 8.410156 16.601562 8.429688 16.382812 8.542969 C 16.269531 8.601562 16.132812 8.671875 15.960938 8.777344 L 15.84375 8.847656 C 15.378906 9.128906 14.292969 9.789062 14 9.828125 C 13.796875 9.855469 13.675781 9.777344 13.394531 9.585938 C 13.332031 9.542969 13.265625 9.5 13.195312 9.453125 C 12.691406 9.121094 12.371094 8.761719 12.332031 8.617188 C 12.496094 8.492188 12.902344 8.175781 13.109375 7.988281 C 13.53125 7.59375 13.957031 7.332031 14.167969 7.332031 C 14.179688 7.332031 14.1875 7.332031 14.199219 7.332031 Z M 12.542969 4.613281 C 13.019531 4.613281 13.421875 5.253906 13.421875 6.015625 C 13.421875 6.113281 13.417969 6.207031 13.402344 6.308594 C 13.371094 6.320312 13.34375 6.335938 13.316406 6.351562 C 13.3125 6.285156 13.304688 6.222656 13.296875 6.15625 C 13.195312 5.570312 12.804688 5.144531 12.371094 5.144531 C 12.335938 5.144531 12.304688 5.144531 12.269531 5.152344 C 12.011719 5.195312 11.808594 5.390625 11.695312 5.664062 C 11.792969 5.058594 12.136719 4.613281 12.542969 4.613281 Z M 11.089844 27.488281 C 10.988281 27.972656 10.441406 28.363281 10.3125 28.449219 C 10.265625 28.460938 10.207031 28.464844 10.140625 28.464844 C 9.390625 28.464844 7.910156 27.84375 7.113281 27.507812 L 6.996094 27.460938 C 6.550781 27.273438 5.828125 27.15625 5.125 27.042969 C 4.566406 26.953125 3.804688 26.828125 3.675781 26.71875 C 3.574219 26.601562 3.691406 26.226562 3.796875 25.898438 C 3.875 25.660156 3.953125 25.414062 3.996094 25.15625 C 4.054688 24.746094 3.984375 24.414062 3.925781 24.144531 C 3.878906 23.917969 3.839844 23.738281 3.878906 23.566406 C 3.910156 23.4375 4.546875 23.296875 4.816406 23.238281 C 5.199219 23.15625 5.59375 23.070312 5.855469 22.914062 C 6.203125 22.703125 6.390625 22.3125 6.558594 21.96875 C 6.679688 21.71875 6.804688 21.460938 6.953125 21.375 C 6.960938 21.371094 6.972656 21.367188 7 21.367188 C 7.277344 21.367188 7.859375 21.949219 8.195312 22.472656 C 8.28125 22.605469 8.4375 22.871094 8.621094 23.175781 C 9.167969 24.089844 9.917969 25.34375 10.308594 25.761719 C 10.660156 26.140625 11.230469 26.867188 11.089844 27.488281 Z M 19.207031 21.097656 C 19.082031 21.695312 19.066406 23.617188 19.066406 24.046875 C 18.808594 24.371094 17.511719 25.90625 15.652344 26.183594 C 14.894531 26.292969 14.1875 26.347656 13.546875 26.347656 C 13.003906 26.347656 12.65625 26.304688 12.511719 26.285156 L 11.574219 25.214844 C 11.945312 25.03125 12.3125 24.648438 12.214844 23.953125 C 12.132812 23.367188 11.378906 22.785156 10.503906 22.113281 C 9.789062 21.5625 8.980469 20.9375 8.757812 20.410156 C 8.296875 19.320312 8.660156 17.402344 9.292969 16.417969 C 9.605469 15.921875 9.863281 15.171875 10.109375 14.449219 C 10.375 13.667969 10.652344 12.855469 10.960938 12.503906 C 11.449219 11.949219 11.902344 10.875 11.984375 10.027344 C 12.441406 10.460938 13.152344 11.019531 13.808594 11.019531 C 13.90625 11.019531 14.007812 11.003906 14.101562 10.976562 C 14.546875 10.847656 15.207031 10.464844 15.847656 10.097656 C 16.398438 9.78125 17.078125 9.386719 17.332031 9.351562 C 17.769531 9.980469 20.316406 15.613281 20.574219 17.421875 C 20.78125 18.851562 20.5625 20.035156 20.453125 20.5 C 20.367188 20.488281 20.261719 20.476562 20.152344 20.476562 C 19.441406 20.476562 19.253906 20.863281 19.207031 21.097656 Z M 26.320312 25.289062 C 26.171875 25.425781 25.648438 25.691406 25.144531 25.949219 C 24.246094 26.40625 23.230469 26.925781 22.777344 27.40625 C 22.132812 28.082031 21.40625 28.535156 20.96875 28.535156 C 20.914062 28.535156 20.867188 28.53125 20.824219 28.515625 C 20.347656 28.367188 19.957031 27.679688 20.167969 26.699219 C 20.390625 25.699219 20.644531 24.335938 20.601562 23.535156 C 20.59375 23.351562 20.578125 23.152344 20.5625 22.960938 C 20.53125 22.601562 20.488281 22.066406 20.535156 21.910156 C 20.542969 21.90625 20.550781 21.902344 20.5625 21.898438 C 20.566406 22.359375 20.664062 23.273438 21.398438 23.59375 C 21.617188 23.6875 21.867188 23.738281 22.140625 23.738281 C 22.871094 23.738281 23.6875 23.375 24.019531 23.042969 C 24.214844 22.847656 24.382812 22.605469 24.496094 22.417969 C 24.523438 22.492188 24.539062 22.585938 24.53125 22.710938 C 24.484375 23.390625 24.816406 24.289062 25.441406 24.617188 L 25.53125 24.667969 C 25.757812 24.785156 26.347656 25.09375 26.359375 25.242188 C 26.359375 25.242188 26.351562 25.257812 26.320312 25.289062 Z M 26.320312 25.289062 "/>
</g>
</svg>
