<?xml version="1.0" encoding="UTF-8"?>
<svg xmlns="http://www.w3.org/2000/svg" xmlns:xlink="http://www.w3.org/1999/xlink" width="30pt" height="30pt" viewBox="0 0 30 30" version="1.1">
<g id="surface1">
<path style="fill-rule:nonzero;fill:rgb(100%,100%,100%);fill-opacity:0.8;stroke-width:1;stroke-linecap:butt;stroke-linejoin:miter;stroke:rgb(46.666667%,46.666667%,46.666667%);stroke-opacity:1;stroke-miterlimit:4;" d="M 63 1 C 28.4 1.55 0.733333 29.9 1 64.5 C 1.283333 99.083333 29.4 127 64 127 C 98.6 127 126.716667 99.083333 127 64.5 C 127.266667 29.9 99.6 1.55 65 1 Z M 63 15 C 36.133333 15.55 14.733333 37.616667 15 64.483333 C 15.283333 91.35 37.133333 112.983333 64 112.983333 C 90.866667 112.983333 112.716667 91.35 113 64.483333 C 113.266667 37.616667 91.866667 15.55 65 15 Z M 63 29 C 43.866667 29.55 28.733333 45.35 29 64.483333 C 29.283333 83.616667 44.866667 98.983333 64 98.983333 C 83.133333 98.983333 98.716667 83.616667 99 64.483333 C 99.266667 45.35 84.133333 29.55 65 29 Z M 63 43 C 51.616667 43.55 42.733333 53.083333 43 64.483333 C 43.283333 75.883333 52.6 84.983333 64 84.983333 C 75.4 84.983333 84.716667 75.883333 85 64.483333 C 85.266667 53.083333 76.383333 43.55 65 43 Z M 63 57 C 59.366667 57.516667 56.75 60.766667 57.016667 64.433333 C 57.283333 68.083333 60.333333 70.933333 64 70.933333 C 67.666667 70.933333 70.716667 68.083333 70.983333 64.433333 C 71.25 60.766667 68.633333 57.516667 65 57 Z M 127 64 L 1 64 M 109 19 L 19 109 M 109 109 L 19 19 M 64 1 L 64 127 " transform="matrix(0.234375,0,0,0.234375,0,0)"/>
<path style="fill-rule:nonzero;fill:rgb(100%,40%,0%);fill-opacity:0.8;stroke-width:1;stroke-linecap:butt;stroke-linejoin:miter;stroke:rgb(46.666667%,46.666667%,46.666667%);stroke-opacity:1;stroke-miterlimit:4;" d="M 50 8 L 30 18 L 98 110 L 108 100 L 64 64 Z M 50 8 " transform="matrix(0.234375,0,0,0.234375,0,0)"/>
<path style="fill-rule:nonzero;fill:rgb(100%,80%,0%);fill-opacity:0.8;stroke-width:1;stroke-linecap:butt;stroke-linejoin:miter;stroke:rgb(46.666667%,46.666667%,46.666667%);stroke-opacity:1;stroke-miterlimit:4;" d="M 17 50 L 17 78 L 64 64 Z M 17 50 " transform="matrix(0.234375,0,0,0.234375,0,0)"/>
<path style="fill-rule:nonzero;fill:rgb(46.666667%,100%,46.666667%);fill-opacity:0.8;stroke-width:1;stroke-linecap:butt;stroke-linejoin:miter;stroke:rgb(46.666667%,46.666667%,46.666667%);stroke-opacity:1;stroke-miterlimit:4;" d="M 64 64 L 70 99 L 58 99 Z M 64 64 " transform="matrix(0.234375,0,0,0.234375,0,0)"/>
<path style="fill-rule:nonzero;fill:rgb(80%,100%,20%);fill-opacity:0.8;stroke-width:1;stroke-linecap:butt;stroke-linejoin:miter;stroke:rgb(46.666667%,46.666667%,46.666667%);stroke-opacity:1;stroke-miterlimit:4;" d="M 64 64 L 77 24 L 86 29 Z M 64 64 " transform="matrix(0.234375,0,0,0.234375,0,0)"/>
<path style="fill-rule:nonzero;fill:rgb(0%,26.666667%,100%);fill-opacity:0.8;stroke-width:1;stroke-linecap:butt;stroke-linejoin:miter;stroke:rgb(46.666667%,46.666667%,46.666667%);stroke-opacity:1;stroke-miterlimit:4;" d="M 64 64 L 78 58 L 79 62 Z M 64 64 L 38 77 L 41 81 Z M 64 64 " transform="matrix(0.234375,0,0,0.234375,0,0)"/>
</g>
</svg>
