<?xml version="1.0" encoding="UTF-8"?>
<svg xmlns="http://www.w3.org/2000/svg" xmlns:xlink="http://www.w3.org/1999/xlink" width="30pt" height="30pt" viewBox="0 0 30 30" version="1.1">
<defs>
<linearGradient id="linear0" gradientUnits="userSpaceOnUse" x1="-0.465647" y1="0.5" x2="0.904496" y2="0.5" gradientTransform="matrix(13.03125,0,0,13.6875,16.78125,4.734375)">
<stop offset="0" style="stop-color:rgb(12.941176%,84.313725%,53.72549%);stop-opacity:1;"/>
<stop offset="1" style="stop-color:rgb(2.745098%,76.470588%,94.901961%);stop-opacity:1;"/>
</linearGradient>
<linearGradient id="linear1" gradientUnits="userSpaceOnUse" x1="-0.536962" y1="1.05498" x2="1.339234" y2="-0.0757813" gradientTransform="matrix(19.59375,0,0,24,0,0)">
<stop offset="0.01" style="stop-color:rgb(98.823529%,97.254902%,29.019608%);stop-opacity:1;"/>
<stop offset="0.11" style="stop-color:rgb(65.490196%,92.156863%,38.431373%);stop-opacity:1;"/>
<stop offset="0.21" style="stop-color:rgb(37.254902%,87.843137%,46.666667%);stop-opacity:1;"/>
<stop offset="0.27" style="stop-color:rgb(19.607843%,85.490196%,51.764706%);stop-opacity:1;"/>
<stop offset="0.31" style="stop-color:rgb(12.941176%,84.313725%,53.72549%);stop-opacity:1;"/>
<stop offset="0.58" style="stop-color:rgb(12.941176%,84.313725%,53.72549%);stop-opacity:1;"/>
<stop offset="0.6" style="stop-color:rgb(12.941176%,84.313725%,53.72549%);stop-opacity:1;"/>
<stop offset="0.69" style="stop-color:rgb(12.54902%,83.921569%,54.901961%);stop-opacity:1;"/>
<stop offset="0.76" style="stop-color:rgb(11.764706%,83.137255%,59.215686%);stop-opacity:1;"/>
<stop offset="0.83" style="stop-color:rgb(9.803922%,81.960784%,66.27451%);stop-opacity:1;"/>
<stop offset="0.9" style="stop-color:rgb(7.45098%,80%,76.078431%);stop-opacity:1;"/>
<stop offset="0.97" style="stop-color:rgb(4.313725%,77.647059%,88.235294%);stop-opacity:1;"/>
<stop offset="1" style="stop-color:rgb(2.745098%,76.470588%,94.901961%);stop-opacity:1;"/>
</linearGradient>
<linearGradient id="linear2" gradientUnits="userSpaceOnUse" x1="0.307014" y1="1.159589" x2="0.777518" y2="0.222489" gradientTransform="matrix(13.03125,0,0,20.53125,0,9.46875)">
<stop offset="0" style="stop-color:rgb(12.941176%,84.313725%,53.72549%);stop-opacity:1;"/>
<stop offset="0.16" style="stop-color:rgb(14.117647%,84.313725%,53.333333%);stop-opacity:1;"/>
<stop offset="0.3" style="stop-color:rgb(18.431373%,84.705882%,52.54902%);stop-opacity:1;"/>
<stop offset="0.44" style="stop-color:rgb(25.490196%,85.490196%,50.980392%);stop-opacity:1;"/>
<stop offset="0.56" style="stop-color:rgb(35.294118%,86.27451%,49.019608%);stop-opacity:1;"/>
<stop offset="0.69" style="stop-color:rgb(47.843137%,87.843137%,46.666667%);stop-opacity:1;"/>
<stop offset="0.81" style="stop-color:rgb(63.137255%,89.019608%,43.137255%);stop-opacity:1;"/>
<stop offset="0.93" style="stop-color:rgb(81.176471%,90.980392%,39.607843%);stop-opacity:1;"/>
<stop offset="1" style="stop-color:rgb(94.509804%,92.156863%,36.862745%);stop-opacity:1;"/>
</linearGradient>
<linearGradient id="linear3" gradientUnits="userSpaceOnUse" x1="-0.0966216" y1="2.017429" x2="1.185586" y2="-0.169429" gradientTransform="matrix(10.40625,0,0,8.203125,13.125,0)">
<stop offset="0" style="stop-color:rgb(12.941176%,84.313725%,53.72549%);stop-opacity:1;"/>
<stop offset="0.06" style="stop-color:rgb(14.117647%,84.313725%,53.333333%);stop-opacity:1;"/>
<stop offset="0.11" style="stop-color:rgb(18.431373%,84.705882%,52.54902%);stop-opacity:1;"/>
<stop offset="0.16" style="stop-color:rgb(25.490196%,85.490196%,50.980392%);stop-opacity:1;"/>
<stop offset="0.21" style="stop-color:rgb(35.294118%,86.666667%,49.019608%);stop-opacity:1;"/>
<stop offset="0.25" style="stop-color:rgb(47.45098%,87.843137%,46.666667%);stop-opacity:1;"/>
<stop offset="0.26" style="stop-color:rgb(48.627451%,87.843137%,46.27451%);stop-opacity:1;"/>
<stop offset="0.5" style="stop-color:rgb(54.901961%,88.235294%,45.098039%);stop-opacity:1;"/>
<stop offset="0.92" style="stop-color:rgb(69.803922%,89.803922%,41.960784%);stop-opacity:1;"/>
</linearGradient>
<linearGradient id="linear4" gradientUnits="userSpaceOnUse" x1="1.118352" y1="0.504802" x2="-0.142198" y2="0.493633" gradientTransform="matrix(21.328125,0,0,22.453125,8.671875,7.5)">
<stop offset="0.39" style="stop-color:rgb(98.823529%,97.254902%,29.019608%);stop-opacity:1;"/>
<stop offset="0.54" style="stop-color:rgb(92.54902%,95.686275%,31.764706%);stop-opacity:1;"/>
<stop offset="0.83" style="stop-color:rgb(76.078431%,91.372549%,39.215686%);stop-opacity:1;"/>
<stop offset="0.92" style="stop-color:rgb(69.803922%,89.803922%,41.960784%);stop-opacity:1;"/>
</linearGradient>
</defs>
<g id="surface1">
<path style=" stroke:none;fill-rule:nonzero;fill:url(#linear0);" d="M 21.046875 4.734375 L 29.8125 12 L 26.625 18.421875 L 21.375 16.96875 L 16.78125 16.96875 Z M 21.046875 4.734375 "/>
<path style=" stroke:none;fill-rule:nonzero;fill:url(#linear1);" d="M 12.1875 9.46875 L 10.5 18.421875 L 10.359375 21.515625 L 6.046875 23.34375 L 0 24 L 1.828125 4.59375 L 12.84375 0 L 19.59375 4.453125 Z M 12.1875 9.46875 "/>
<path style=" stroke:none;fill-rule:nonzero;fill:url(#linear2);" d="M 12.1875 9.46875 L 13.03125 26.765625 L 10.265625 30 L 0 24 L 8.4375 11.390625 Z M 12.1875 9.46875 "/>
<path style=" stroke:none;fill-rule:nonzero;fill:url(#linear3);" d="M 23.53125 8.203125 L 13.125 8.203125 L 22.3125 0 Z M 23.53125 8.203125 "/>
<path style=" stroke:none;fill-rule:nonzero;fill:url(#linear4);" d="M 30 26.8125 L 20.859375 29.953125 L 8.671875 26.53125 L 12.1875 9.46875 L 13.59375 8.203125 L 21.046875 7.5 L 20.34375 14.953125 L 26.25 12.65625 Z M 30 26.8125 "/>
<path style=" stroke:none;fill-rule:nonzero;fill:rgb(0%,0%,0%);fill-opacity:1;" d="M 5.625 5.625 L 24.375 5.625 L 24.375 24.375 L 5.625 24.375 Z M 5.625 5.625 "/>
<path style=" stroke:none;fill-rule:nonzero;fill:rgb(100%,100%,100%);fill-opacity:1;" d="M 7.40625 20.859375 L 14.4375 20.859375 L 14.4375 22.03125 L 7.40625 22.03125 Z M 7.359375 8.0625 L 10.546875 8.0625 C 12.421875 8.0625 13.5 9.140625 13.5 10.734375 C 13.5 12.515625 12.09375 13.453125 10.359375 13.453125 L 9.046875 13.453125 L 9.046875 15.796875 L 7.359375 15.796875 Z M 11.765625 10.828125 C 11.765625 10.078125 11.25 9.65625 10.359375 9.65625 L 9.046875 9.65625 L 9.046875 12.046875 L 10.40625 12.046875 C 11.328125 12.046875 11.765625 11.484375 11.765625 10.828125 Z M 14.15625 12 C 14.132812 10.921875 14.550781 9.882812 15.3125 9.125 C 16.070312 8.363281 17.109375 7.945312 18.1875 7.96875 C 19.640625 7.96875 20.53125 8.4375 21.234375 9.1875 L 20.15625 10.453125 C 19.546875 9.890625 18.9375 9.5625 18.1875 9.5625 C 16.875 9.5625 15.9375 10.640625 15.9375 12 C 15.9375 13.3125 16.875 14.4375 18.1875 14.4375 C 19.078125 14.4375 19.640625 14.0625 20.25 13.546875 L 21.328125 14.625 C 20.53125 15.46875 19.640625 16.03125 18.140625 16.03125 C 17.074219 16.03125 16.054688 15.605469 15.304688 14.847656 C 14.558594 14.089844 14.144531 13.066406 14.15625 12 Z M 14.15625 12 "/>
</g>
</svg>
