<?xml version="1.0" encoding="UTF-8"?>
<svg xmlns="http://www.w3.org/2000/svg" xmlns:xlink="http://www.w3.org/1999/xlink" width="40pt" height="40pt" viewBox="0 0 40 40" version="1.1">
<defs>
<linearGradient id="linear0" gradientUnits="userSpaceOnUse" x1="-0.465647" y1="0.5" x2="0.904496" y2="0.5" gradientTransform="matrix(17.375,0,0,18.25,22.375,6.3125)">
<stop offset="0" style="stop-color:rgb(12.941176%,84.313725%,53.72549%);stop-opacity:1;"/>
<stop offset="1" style="stop-color:rgb(2.745098%,76.470588%,94.901961%);stop-opacity:1;"/>
</linearGradient>
<linearGradient id="linear1" gradientUnits="userSpaceOnUse" x1="-0.536962" y1="1.05498" x2="1.339234" y2="-0.0757813" gradientTransform="matrix(26.125,0,0,32,0,0)">
<stop offset="0.01" style="stop-color:rgb(98.823529%,97.254902%,29.019608%);stop-opacity:1;"/>
<stop offset="0.11" style="stop-color:rgb(65.490196%,92.156863%,38.431373%);stop-opacity:1;"/>
<stop offset="0.21" style="stop-color:rgb(37.254902%,87.843137%,46.666667%);stop-opacity:1;"/>
<stop offset="0.27" style="stop-color:rgb(19.607843%,85.490196%,51.764706%);stop-opacity:1;"/>
<stop offset="0.31" style="stop-color:rgb(12.941176%,84.313725%,53.72549%);stop-opacity:1;"/>
<stop offset="0.58" style="stop-color:rgb(12.941176%,84.313725%,53.72549%);stop-opacity:1;"/>
<stop offset="0.6" style="stop-color:rgb(12.941176%,84.313725%,53.72549%);stop-opacity:1;"/>
<stop offset="0.69" style="stop-color:rgb(12.54902%,83.921569%,54.901961%);stop-opacity:1;"/>
<stop offset="0.76" style="stop-color:rgb(11.764706%,83.137255%,59.215686%);stop-opacity:1;"/>
<stop offset="0.83" style="stop-color:rgb(9.803922%,81.960784%,66.27451%);stop-opacity:1;"/>
<stop offset="0.9" style="stop-color:rgb(7.45098%,80%,76.078431%);stop-opacity:1;"/>
<stop offset="0.97" style="stop-color:rgb(4.313725%,77.647059%,88.235294%);stop-opacity:1;"/>
<stop offset="1" style="stop-color:rgb(2.745098%,76.470588%,94.901961%);stop-opacity:1;"/>
</linearGradient>
<linearGradient id="linear2" gradientUnits="userSpaceOnUse" x1="0.307014" y1="1.159589" x2="0.777518" y2="0.222489" gradientTransform="matrix(17.375,0,0,27.375,0,12.625)">
<stop offset="0" style="stop-color:rgb(12.941176%,84.313725%,53.72549%);stop-opacity:1;"/>
<stop offset="0.16" style="stop-color:rgb(14.117647%,84.313725%,53.333333%);stop-opacity:1;"/>
<stop offset="0.3" style="stop-color:rgb(18.431373%,84.705882%,52.54902%);stop-opacity:1;"/>
<stop offset="0.44" style="stop-color:rgb(25.490196%,85.490196%,50.980392%);stop-opacity:1;"/>
<stop offset="0.56" style="stop-color:rgb(35.294118%,86.27451%,49.019608%);stop-opacity:1;"/>
<stop offset="0.69" style="stop-color:rgb(47.843137%,87.843137%,46.666667%);stop-opacity:1;"/>
<stop offset="0.81" style="stop-color:rgb(63.137255%,89.019608%,43.137255%);stop-opacity:1;"/>
<stop offset="0.93" style="stop-color:rgb(81.176471%,90.980392%,39.607843%);stop-opacity:1;"/>
<stop offset="1" style="stop-color:rgb(94.509804%,92.156863%,36.862745%);stop-opacity:1;"/>
</linearGradient>
<linearGradient id="linear3" gradientUnits="userSpaceOnUse" x1="-0.0966216" y1="2.017429" x2="1.185586" y2="-0.169429" gradientTransform="matrix(13.875,0,0,10.9375,17.5,0)">
<stop offset="0" style="stop-color:rgb(12.941176%,84.313725%,53.72549%);stop-opacity:1;"/>
<stop offset="0.06" style="stop-color:rgb(14.117647%,84.313725%,53.333333%);stop-opacity:1;"/>
<stop offset="0.11" style="stop-color:rgb(18.431373%,84.705882%,52.54902%);stop-opacity:1;"/>
<stop offset="0.16" style="stop-color:rgb(25.490196%,85.490196%,50.980392%);stop-opacity:1;"/>
<stop offset="0.21" style="stop-color:rgb(35.294118%,86.666667%,49.019608%);stop-opacity:1;"/>
<stop offset="0.25" style="stop-color:rgb(47.45098%,87.843137%,46.666667%);stop-opacity:1;"/>
<stop offset="0.26" style="stop-color:rgb(48.627451%,87.843137%,46.27451%);stop-opacity:1;"/>
<stop offset="0.5" style="stop-color:rgb(54.901961%,88.235294%,45.098039%);stop-opacity:1;"/>
<stop offset="0.92" style="stop-color:rgb(69.803922%,89.803922%,41.960784%);stop-opacity:1;"/>
</linearGradient>
<linearGradient id="linear4" gradientUnits="userSpaceOnUse" x1="1.118352" y1="0.504802" x2="-0.142198" y2="0.493633" gradientTransform="matrix(28.4375,0,0,29.9375,11.5625,10)">
<stop offset="0.39" style="stop-color:rgb(98.823529%,97.254902%,29.019608%);stop-opacity:1;"/>
<stop offset="0.54" style="stop-color:rgb(92.54902%,95.686275%,31.764706%);stop-opacity:1;"/>
<stop offset="0.83" style="stop-color:rgb(76.078431%,91.372549%,39.215686%);stop-opacity:1;"/>
<stop offset="0.92" style="stop-color:rgb(69.803922%,89.803922%,41.960784%);stop-opacity:1;"/>
</linearGradient>
</defs>
<g id="surface1">
<path style=" stroke:none;fill-rule:nonzero;fill:url(#linear0);" d="M 28.0625 6.3125 L 39.75 16 L 35.5 24.5625 L 28.5 22.625 L 22.375 22.625 Z M 28.0625 6.3125 "/>
<path style=" stroke:none;fill-rule:nonzero;fill:url(#linear1);" d="M 16.25 12.625 L 14 24.5625 L 13.8125 28.6875 L 8.0625 31.125 L 0 32 L 2.4375 6.125 L 17.125 0 L 26.125 5.9375 Z M 16.25 12.625 "/>
<path style=" stroke:none;fill-rule:nonzero;fill:url(#linear2);" d="M 16.25 12.625 L 17.375 35.6875 L 13.6875 40 L 0 32 L 11.25 15.1875 Z M 16.25 12.625 "/>
<path style=" stroke:none;fill-rule:nonzero;fill:url(#linear3);" d="M 31.375 10.9375 L 17.5 10.9375 L 29.75 0 Z M 31.375 10.9375 "/>
<path style=" stroke:none;fill-rule:nonzero;fill:url(#linear4);" d="M 40 35.75 L 27.8125 39.9375 L 11.5625 35.375 L 16.25 12.625 L 18.125 10.9375 L 28.0625 10 L 27.125 19.9375 L 35 16.875 Z M 40 35.75 "/>
<path style=" stroke:none;fill-rule:nonzero;fill:rgb(0%,0%,0%);fill-opacity:1;" d="M 7.5 7.5 L 32.5 7.5 L 32.5 32.5 L 7.5 32.5 Z M 7.5 7.5 "/>
<path style=" stroke:none;fill-rule:nonzero;fill:rgb(100%,100%,100%);fill-opacity:1;" d="M 9.875 27.8125 L 19.25 27.8125 L 19.25 29.375 L 9.875 29.375 Z M 9.8125 10.75 L 14.0625 10.75 C 16.5625 10.75 18 12.1875 18 14.3125 C 18 16.6875 16.125 17.9375 13.8125 17.9375 L 12.0625 17.9375 L 12.0625 21.0625 L 9.8125 21.0625 Z M 15.6875 14.4375 C 15.6875 13.4375 15 12.875 13.8125 12.875 L 12.0625 12.875 L 12.0625 16.0625 L 13.875 16.0625 C 15.101562 16.0625 15.6875 15.3125 15.6875 14.4375 Z M 18.875 16 C 18.84375 14.566406 19.398438 13.179688 20.414062 12.164062 C 21.429688 11.148438 22.816406 10.59375 24.25 10.625 C 26.1875 10.625 27.375 11.25 28.3125 12.25 L 26.875 13.9375 C 26.0625 13.1875 25.25 12.75 24.25 12.75 C 22.5 12.75 21.25 14.1875 21.25 16 C 21.25 17.75 22.5 19.25 24.25 19.25 C 25.4375 19.25 26.1875 18.75 27 18.0625 L 28.4375 19.5 C 27.375 20.625 26.1875 21.375 24.1875 21.375 C 22.769531 21.375 21.40625 20.808594 20.410156 19.796875 C 19.410156 18.789062 18.859375 17.417969 18.875 16 Z M 18.875 16 "/>
</g>
</svg>
